PathFileType	4	(X/Y/Z)	/Users/visionmauri/4_2_2_f_1_Sports2D/4_2_2_f_1_Sports2D_px_person00.trc
DataRate	CameraRate	NumFrames	NumMarkers	Units	OrigDataRate	OrigDataStartFrame	OrigNumFrames
30.0	30.0	9	22	m	30.0	121	325
Frame#	Time	Hip			RHip			RKnee			RAnkle			RBigToe			RSmallToe			RHeel			LHip			LKnee			LAnkle			LBigToe			LSmallToe			LHeel			Neck			Head			Nose			RShoulder			RElbow			RWrist			LShoulder			LElbow			LWrist			
		X1	Y1	Z1	X2	Y2	Z2	X3	Y3	Z3	X4	Y4	Z4	X5	Y5	Z5	X6	Y6	Z6	X7	Y7	Z7	X8	Y8	Z8	X9	Y9	Z9	X10	Y10	Z10	X11	Y11	Z11	X12	Y12	Z12	X13	Y13	Z13	X14	Y14	Z14	X15	Y15	Z15	X16	Y16	Z16	X17	Y17	Z17	X18	Y18	Z18	X19	Y19	Z19	X20	Y20	Z20	X21	Y21	Z21	X22	Y22	Z22
121	4.045781893004115	576.7657909605375	838.5299250417885	0.0	576.6346045300364	844.0944046440991	0.0	602.886294430639	1023.328644200583	0.0	586.2778412161297	1238.837720524337	0.0	680.3916103807575	1269.6232011106865	0.0	668.2055850273033	1280.2296424167578	0.0	564.7050210398571	1273.598442070543	0.0	570.5670738364175	842.8479465787459	0.0	598.7823665565174	1023.087843064405	0.0	550.3369723145809	1212.9146636441628	0.0	655.5788424869816	1254.9981096115055	0.0	648.5705587612739	1253.842971881943	0.0	528.1438288696236	1245.7497721413745	0.0	651.0416130202464	579.8331636144638	0.0	747.5110686606473	494.3957889500463	0.0	726.1710492968115	575.0349248202539	0.0	645.1904397626156	605.041452333675	0.0	634.0673942977958	747.4992966102095	0.0	721.9326405950947	839.4263264083354	0.0	616.8701447448543	599.3540917186887	0.0	664.1130273335232	740.6570303080232	0.0	727.395918836673	836.0316388026578	0.0
122	4.079218106995885	580.120333951446	840.8366958539192	0.0	579.6353541102166	844.4898062214747	0.0	603.8430292609715	1028.3636308177158	0.0	592.1036468308085	1241.8859468387545	0.0	681.6850959949495	1271.0715447761688	0.0	670.6231723060279	1280.4632353699176	0.0	576.8215264036952	1274.9994284098464	0.0	576.38331302531	843.9325717280984	0.0	600.5671193781657	1026.5017515832783	0.0	561.8889659641775	1214.3815438905476	0.0	651.5629297983136	1248.797479348921	0.0	645.2217454981835	1253.5687054767784	0.0	543.2086084073916	1247.1487528667012	0.0	651.0688084354317	579.5562783442058	0.0	746.9283609310664	496.35440697288317	0.0	725.4273850104922	576.3927179124195	0.0	645.3516247980438	604.2616161495108	0.0	633.8837320491832	745.8809489971686	0.0	722.3716982833215	840.1372976501283	0.0	618.5919020989887	599.7882233638691	0.0	665.3859572444926	740.4372745963054	0.0	726.4688873941983	837.1180449970566	0.0
123	4.112654320987654	583.0249552657381	841.8273869648544	0.0	582.4013093886709	843.2009690382462	0.0	606.3534802173995	1029.8552162649416	0.0	596.317322932647	1243.3616354248381	0.0	680.6221776455508	1271.8858806932428	0.0	669.6347609676302	1280.4534523147145	0.0	581.1536634333488	1274.7558683197537	0.0	582.2242058893083	843.7242857153811	0.0	603.8181859085292	1027.8653384019221	0.0	575.0507349266298	1218.178540265566	0.0	656.340684924887	1248.743217184791	0.0	650.3189365512362	1254.9325009668744	0.0	557.9881265012725	1252.3869083385537	0.0	650.4333992279785	581.6904645310093	0.0	747.5788461273526	498.2299052595743	0.0	725.2927956684716	577.9378373916913	0.0	643.8138320355539	604.4690064847193	0.0	633.358205476404	744.5338512533168	0.0	722.6985568462113	840.4114814826067	0.0	619.964599100458	601.1084539043649	0.0	664.5326480165045	740.3697474920284	0.0	723.1752313054914	837.1866279263842	0.0
124	4.1460905349794235	584.8393414998164	841.775197503385	0.0	583.9970240765824	841.8379459246808	0.0	609.9451966853188	1029.316561717035	0.0	597.1389501614541	1243.7112880212192	0.0	679.3095168546408	1272.4624240266608	0.0	667.4088677497427	1281.2307090985275	0.0	582.2860865423529	1274.7710530495583	0.0	587.4780970185702	842.9992648105348	0.0	608.474382351139	1027.780420197507	0.0	587.2525572862207	1223.675080257559	0.0	667.5213478861541	1256.0107475409852	0.0	659.9780758636634	1257.0486541852638	0.0	569.3947347098992	1257.9638626995873	0.0	649.8883285216365	584.2772022187113	0.0	747.2420046214152	498.4377783661888	0.0	725.4503550393716	577.8262154561914	0.0	640.0500798585064	604.4540923529588	0.0	632.244337740511	743.0759271842313	0.0	722.5754209314736	839.6517354865778	0.0	623.3100745954875	603.0131279702374	0.0	662.6120192002027	740.2848862559858	0.0	721.3262475273586	836.874062750747	0.0
125	4.179526748971194	585.9380167197303	841.8672118924827	0.0	584.1960848605668	841.6807564501673	0.0	613.2473172732191	1028.6517115343497	0.0	597.7670160928666	1243.2267106565835	0.0	678.8628693791399	1272.5327838764138	0.0	665.7077548380453	1282.2331352163646	0.0	583.5538943029449	1275.7518707103147	0.0	592.033261784515	842.924284983074	0.0	612.3845884509371	1027.3805609873848	0.0	594.4825119607275	1226.943445027889	0.0	675.840779622124	1263.8681403586859	0.0	666.8933489946519	1258.7322062109881	0.0	574.8058117736515	1260.6193381438522	0.0	648.940192397584	585.6544459896534	0.0	743.7613072705269	497.3862824665288	0.0	724.9358399353498	575.9753385047089	0.0	635.1806539810453	603.6681725217109	0.0	630.5166844255527	741.8955637077776	0.0	722.0561040915599	838.8813335139902	0.0	627.6778319589606	604.9344100799473	0.0	660.5433534080419	739.8897799641798	0.0	722.4779594296003	836.4337732926164	0.0
126	4.212962962962963	586.9390326360777	842.2322965438174	0.0	583.9903790747549	842.149587881308	0.0	615.1688170017304	1027.9099135348108	0.0	598.6767867317758	1242.9233015089903	0.0	678.5589149253155	1271.9786350315671	0.0	665.2185385856853	1282.4852822470782	0.0	584.8524452662105	1277.606485104734	0.0	595.4813247794622	843.4220596211468	0.0	614.3371869902176	1026.8944923617996	0.0	596.2241249542196	1227.0224460469958	0.0	678.0775759767906	1266.306016324346	0.0	668.976085553404	1258.9842430502522	0.0	575.0718645384025	1261.4809829461003	0.0	646.751170419398	586.5249785294752	0.0	738.8825052866548	496.60768099289675	0.0	722.8244484180419	574.0899166965893	0.0	631.5283604440926	603.2121861776371	0.0	627.4856423754236	741.1774028450601	0.0	721.1495129739687	838.3788073562266	0.0	629.6320747380239	606.5675285380885	0.0	658.6567176956814	739.4446172058018	0.0	723.5205223847869	835.7875288690983	0.0
127	4.246399176954733	587.7875222719388	842.5839835430296	0.0	584.0147595553942	842.64432947609	0.0	615.6178997811554	1027.1536958891281	0.0	598.2351743147279	1242.761074313986	0.0	677.2868486919349	1271.0679683791232	0.0	665.5923379340177	1281.964629498227	0.0	584.6946624730283	1279.4591411905526	0.0	597.3738726204516	843.9757198834978	0.0	614.9873443499357	1026.807641070678	0.0	595.4098172358042	1226.1553357412101	0.0	677.1151703305145	1264.1054774266502	0.0	669.0943088558458	1258.2002942497884	0.0	573.9603181447807	1261.6749665882699	0.0	643.5197702078921	587.8032462079989	0.0	734.9565922548782	496.3499054707476	0.0	719.2107866855522	573.3764086106345	0.0	629.9025378239259	603.4541596319607	0.0	621.0620489728208	740.016181515906	0.0	718.4347000663367	836.3608419556714	0.0	629.0592959348223	608.0477359624545	0.0	658.3490727405018	739.1785342411061	0.0	722.3898384574504	834.803951732982	0.0
128	4.279835390946502	588.1528903200883	843.2695619518864	0.0	583.9600001465656	843.2134960065647	0.0	615.2067561186037	1027.3256285080117	0.0	596.8277517924422	1241.9387797003942	0.0	676.0876917643335	1270.02241020358	0.0	666.0424102712221	1281.3386077251646	0.0	583.8306417444388	1280.1223057431257	0.0	598.1048979721146	844.4013369419613	0.0	615.1595725475387	1027.6714804423268	0.0	594.6367237007934	1225.5645901105586	0.0	676.0018188940048	1261.1212240179107	0.0	669.5002801564762	1257.4868326861874	0.0	574.189252867106	1260.636524667494	0.0	640.6076087705004	588.898141908585	0.0	732.1808547744146	495.8839102376666	0.0	715.8874285656694	573.6053773352672	0.0	628.3849881953809	603.5042299238206	0.0	610.6034473352865	737.3033825125367	0.0	711.5905339344629	830.8093053532833	0.0	629.3757085670978	609.363398466616	0.0	660.643674509187	738.8337994252912	0.0	720.547183533403	832.7632824326579	0.0
129	4.313271604938271	588.3082868899897	844.4599360515904	0.0	583.2042244911015	843.4413999645117	0.0	614.5916222136683	1028.5581233210355	0.0	596.040266336635	1240.5938060498547	0.0	676.612212589558	1269.553451791534	0.0	665.5613622068812	1281.2558297602711	0.0	583.8332046921336	1278.9792549308795	0.0	599.379904963992	844.4321531163589	0.0	615.1625363829033	1028.981581120053	0.0	594.722206624536	1225.2744380422605	0.0	675.5291457070477	1259.9171407598376	0.0	669.9863104332627	1257.1494964124802	0.0	575.7790038018121	1259.0071431797792	0.0	639.1533250327652	589.2983767670986	0.0	729.6624759112333	494.93136040981733	0.0	714.2045038949617	574.128960758629	0.0	624.5099002958726	603.1023572190643	0.0	598.5201656692574	733.309366109046	0.0	700.412414733495	822.7029430867758	0.0	633.1492117708849	610.7366762344187	0.0	664.6738409049357	738.318977793687	0.0	719.4412359098709	829.3995554617769	0.0
